# xmcd
#
# Track frame offsets: 
#        150
#        11261
#        22133
#        32014
#        46225
#        61625
#        74142
#        88393
#        96630
#        106223
#        116759
#        127418
#        138090
#        147813
#        159580
#        171934
#        183938
#        200538
#        211521
#        229089
#        238861
#        247955
#        255270
#        268736
#        278913
#        292650
#        304528
#        318115
#        329578
#
# Disc length: 4521 seconds
#
# Revision: 0
# Processed by: cddbd v1.5.2PL0 Copyright (c) Steve Scherf et al.
# Submitted via: ExactAudioCopy v0.99pb5
#
DISCID=a311a71d
DTITLE=Various Artist - Kantri
DYEAR=1900
DGENRE=Country
TTITLE0=Jussi Raittinen - Oon yksin niin
TTITLE1=Arto Sortavala - Mieluiten Sun Miehes Olisin
TTITLE2=Jussi Raittinen - K‰y Ohitsein
TTITLE3=Eija Meril‰ - ƒiti sun kaltaises
TTITLE4=Jussi Raittinen - Nukkekoti
TTITLE5=Rauli Puumalainen - Et pett‰‰ mua sa saa
TTITLE6=Jussi Raittinen - Tukholma
TTITLE7=Jussi Raittinen - Edess‰in N‰en Tien Yksin‰isyyteen
TTITLE8=Arto Sortavala - L‰hde mukaan
TTITLE9=Jussi Raittinen - M‰ sulta ik‰v‰n sain
TTITLE10=Eija Meril‰ - On kaikki ennallaan
TTITLE11=Jussi Raittinen - Syd‰min, niin mustasukkainen
TTITLE12=Rauli Puumalainen - Toisin oli ennen
TTITLE13=Jussi Raittinen - Kunnon Suomalainen
TTITLE14=Erkki Liikanen - San Antonion Ruusu
TTITLE15=Erkki Liikanen - On ihmeen hyv‰ tulla kotiin
TTITLE16=Eija Meril‰ - Vanha Riimu
TTITLE17=Eija meril‰ and Erkki Liikanen - M‰ p‰iv‰ns‰teen kerran pienen
TTITLE18=Eija Meril‰ - HIljainen Kitara
TTITLE19=Jussi Raittinen - Jambalaya
TTITLE20=Jussi Raittinen and Kantri Boys - Sua En voi uohtaa
TTITLE21=Eija Meril‰ Jussi Raittinen Erkki Liikanen Kai Lind - Jo meit
TTITLE21=‰ oottaa Texas
TTITLE22=Jussi Raittinen and Kantri-Boys - Jo p‰‰tt‰‰ voit
TTITLE23=Jussi Raittinen and Kantri Boys - Kuinka voit sanoiksi muuttaa
TTITLE24=Jussi Raittinen and Kantri Boys - Vanhat Syd‰nsurut
TTITLE25=Eija Meril‰ - Tennessee valssi
TTITLE26=Eija Meril‰ - Seitsem‰n p‰iv‰‰
TTITLE27=Kai Lind - Tien Kuningas
TTITLE28=Kai Lind - L‰nnen tie
EXTD=
EXTT0=
EXTT1=
EXTT2=
EXTT3=
EXTT4=
EXTT5=
EXTT6=
EXTT7=
EXTT8=
EXTT9=
EXTT10=
EXTT11=
EXTT12=
EXTT13=
EXTT14=
EXTT15=
EXTT16=
EXTT17=
EXTT18=
EXTT19=
EXTT20=
EXTT21=
EXTT22=
EXTT23=
EXTT24=
EXTT25=
EXTT26=
EXTT27=
EXTT28=
PLAYORDER=
